<svg id="Layer_1" enable-background="new 0 0 500 500" viewBox="0 0 500 500" xmlns="http://www.w3.org/2000/svg"><g><path d="m221.465 475h-144.506c-4.086 0-7.397-3.313-7.397-7.398v-30.893c0-4.086 3.312-7.398 7.397-7.398h144.506c4.086 0 7.397 3.312 7.397 7.398v30.893c0 4.086-3.311 7.398-7.397 7.398zm-137.108-14.795h129.71v-16.099h-129.71z"/><path d="m208.918 444.106h-119.412c-4.086 0-7.397-3.311-7.397-7.397v-20.268l-20.933-168.684c-2.462-19.841 2.699-39.398 14.524-55.068l47.315-60.154c1.948-2.476 5.242-3.448 8.235-2.415 2.976 1.031 4.977 3.837 4.977 6.99v80.612c0 1.294-.342 2.566-.983 3.687-3.422 5.942-3.422 14.24-.006 18.497l45.05 56.169-.342-54.094c-.052-8.73 3.306-16.859 9.46-22.895 6.155-6.037 14.345-9.284 23.083-9.006 17.795.462 32.364 15.321 32.473 33.121l.682 108.556c.087 13.006-3.502 25.613-10.379 36.461l-18.951 29.914v18.577c.001 4.085-3.31 7.397-7.396 7.397zm-112.015-14.795h104.617v-13.326c0-1.402.399-2.775 1.151-3.959l20.1-31.726c5.352-8.447 8.143-18.285 8.079-28.449l-.681-108.558c-.064-9.9-8.166-18.167-18.061-18.425-4.768-.081-9.073 1.58-12.345 4.782-3.265 3.204-5.051 7.551-5.022 12.237l.364 57.796c.04 5.802-3.451 10.805-8.895 12.737-5.553 1.965-11.587.246-15.321-4.418l-47.194-58.839c-7.704-9.608-6.992-23.565-2.265-33.271v-57.415l-34.01 43.242c-9.409 12.468-13.547 28.214-11.564 44.217l20.991 169.137c.04.3.057.607.057.91v13.328z"/><path d="m406.622 385.151h-20.724c-4.085 0-7.397-3.311-7.397-7.397 0-4.087 3.312-7.398 7.397-7.398h13.327v-330.561h-262.929v97.315c0 4.086-3.311 7.397-7.398 7.397-4.086 0-7.397-3.311-7.397-7.397v-104.713c0-4.086 3.311-7.397 7.397-7.397h277.725c4.087 0 7.398 3.311 7.398 7.397v345.357c-.001 4.086-3.312 7.397-7.399 7.397z"/><path d="m438.75 418.125h-55.389c-4.086 0-7.397-3.311-7.397-7.397 0-4.087 3.311-7.398 7.397-7.398h47.991v-330.564h-24.729c-4.086 0-7.397-3.313-7.397-7.398 0-4.086 3.311-7.397 7.397-7.397h32.128c4.086 0 7.397 3.311 7.397 7.397v345.36c-.001 4.086-3.313 7.397-7.398 7.397z"/><path d="m347.656 86.283h-159.786c-4.086 0-7.397-3.312-7.397-7.397 0-4.087 3.311-7.398 7.397-7.398h159.786c4.086 0 7.397 3.311 7.397 7.398 0 4.086-3.311 7.397-7.397 7.397z"/><path d="m367.733 124.762h-199.947c-4.086 0-7.397-3.312-7.397-7.398s3.311-7.397 7.397-7.397h199.947c4.087 0 7.398 3.311 7.398 7.397 0 4.087-3.311 7.398-7.398 7.398z"/><path d="m367.733 160.29h-199.947c-4.086 0-7.397-3.311-7.397-7.397 0-4.087 3.311-7.398 7.397-7.398h199.947c4.087 0 7.398 3.311 7.398 7.398 0 4.086-3.311 7.397-7.398 7.397z"/><path d="m367.733 198.769h-199.947c-4.086 0-7.397-3.312-7.397-7.398s3.311-7.397 7.397-7.397h199.947c4.087 0 7.398 3.311 7.398 7.397 0 4.087-3.311 7.398-7.398 7.398z"/><path d="m438.75 475h-377.499c-4.087 0-7.398-3.313-7.398-7.398s3.312-7.397 7.398-7.397h377.499c4.086 0 7.397 3.311 7.397 7.397s-3.312 7.398-7.397 7.398z"/><path d="m321.73 360.696c-30.185 0-54.742-24.556-54.742-54.742 0-30.185 24.557-54.741 54.742-54.741s54.742 24.556 54.742 54.741c0 30.186-24.557 54.742-54.742 54.742zm0-94.687c-22.025 0-39.947 17.919-39.947 39.946 0 22.028 17.922 39.947 39.947 39.947s39.947-17.919 39.947-39.947-17.922-39.946-39.947-39.946z"/><path d="m289.395 418.125c-1.307 0-2.607-.344-3.769-1.031-2.248-1.333-3.629-3.751-3.629-6.366v-70.26c0-2.947 1.752-5.614 4.456-6.787 2.705-1.171 5.849-.628 7.999 1.389 7.455 6.984 17.141 10.83 27.278 10.83 10.143 0 19.828-3.846 27.284-10.83 2.155-2.017 5.293-2.56 7.998-1.389 2.706 1.173 4.456 3.84 4.456 6.787v70.26c0 2.615-1.381 5.033-3.629 6.366-2.248 1.335-5.033 1.375-7.328.118l-28.781-15.801-28.775 15.801c-1.109.61-2.335.913-3.56.913zm32.335-32.548c1.225 0 2.451.303 3.56.913l21.383 11.738v-43.564c-15.316 7.883-34.577 7.883-49.881 0v43.564l21.378-11.738c1.11-.61 2.335-.913 3.56-.913z"/></g></svg>