<svg id="Layer_1" enable-background="new 0 0 390.012 321.22" height="512" viewBox="0 0 390.012 321.22" width="512" xmlns="http://www.w3.org/2000/svg"><g><path d="m148.799 171.543c-2.153-1.302-4.072-2.949-5.686-4.864v25.496l5.686-4.688z"/><path d="m148.799 120.875v-5.873h86.083v43.596h-40.903c-.295.977-.656 1.926-1.074 2.843h41.977v43.596h-85.101l-6.668 5.497v31.226h-.001v15.638h193.414v-12.556h.001v-221.77h-2.606-3.081-90.272-5.686-86.083-5.686v5.686 96.971c1.614-1.911 3.534-3.556 5.686-4.854zm0-8.716v-43.596h86.083v43.596zm0 95.721h86.083v33.88h-86.083zm182.041-179.122v213.003h-90.272v-213.003zm-95.958 0v36.962h-86.083v-36.962z"/><path d="m243.368 238.771h84.659v-22.874h-84.659zm50.903-18.265v2.51h-17.145v-2.51z"/><path d="m328.027 163.899h-84.659v23.764h84.659zm-50.902 6.415v-2.51h17.145v2.51z"/><path d="m328.027 213.387v-23.215h-84.659v23.215zm-33.756-18.534v2.509h-17.145v-2.509z"/><path d="m354.527-.249h7v258h-7z" transform="matrix(.996 -.095 .095 .996 -10.593 34.52)"/><path d="m368.527-.249h7v258h-7z" transform="matrix(.996 -.095 .095 .996 -10.53 35.847)"/><path d="m156.889 185.068 8.572-15.229h6.663c9.846 0 17.828-7.982 17.828-17.828v-11.573c0-9.846-7.982-17.828-17.828-17.828h-11.572c-9.847 0-17.828 7.982-17.828 17.828v11.573c0 9.813 7.93 17.77 17.73 17.823zm9.449-54.185c8.472 0 15.34 6.868 15.34 15.34s-6.868 15.34-15.34 15.34-15.34-6.868-15.34-15.34 6.868-15.34 15.34-15.34z"/><path d="m158.486 149.108h2.173l.429 2.219h1.622l-2.066-10.206h-2.157l-1.959 10.206h1.546zm1.072-6.029.842 4.575h-1.668z"/><path d="m165.373 147.195h1.041c1.025 0 1.668-.199 2.142-.658.551-.52.811-1.285.811-2.387 0-1.086-.26-1.852-.811-2.372-.474-.459-1.117-.658-2.142-.658h-2.616v10.206h1.576v-4.131zm0-4.621h.689c1.27 0 1.668.383 1.668 1.576 0 1.209-.398 1.591-1.668 1.591h-.689z"/><path d="m172.154 147.195h1.041c1.025 0 1.668-.199 2.142-.658.551-.52.811-1.285.811-2.387 0-1.086-.26-1.852-.811-2.372-.474-.459-1.117-.658-2.142-.658h-2.616v10.206h1.576v-4.131zm0-4.621h.689c1.27 0 1.668.383 1.668 1.576 0 1.209-.398 1.591-1.668 1.591h-.689z"/><path d="m39.308 271.399c-.858 0-1.703-.091-2.538-.237l9.208 12.209-37.711 13.586c-6.495 2.34-9.863 9.502-7.523 15.997 1.835 5.096 6.639 8.267 11.761 8.267 1.405 0 2.837-.239 4.235-.743l53.667-19.333c3.736-1.346 6.61-4.387 7.744-8.193 1.133-3.806.391-7.924-2.001-11.094l-10.628-14.091-24.11 3.483c-.698.098-1.405.149-2.104.149z"/><path d="m172.919 276.365v7.455h62.668v-7.455h-16.584v-7.667h2.875v-3h-35.25v3h2.874v7.667zm19.582-6.169h23.5v6.169h-23.5z"/><path d="m172.919 286.02h62.668v21.678h-62.668z"/><path d="m305.309 289.008-3.538.661-8.439-7.955-3.498.688 1.713 9.176-41.287 7.711 1.347 7.209 41.286-7.711 1.713 9.174 10.814-2.019-1.714-9.175 2.949-.55z"/><path d="m32.308 267.45c.644.192 1.259.37 1.854.533 2.097.949 4.475 1.34 6.92.989l34.109-4.928 13.059 47.063c1.535 5.534 6.562 9.162 12.038 9.161 1.106 0 2.231-.147 3.349-.458 6.652-1.846 10.549-8.734 8.703-15.387l-7.685-27.698-8.474-9.155-31.21-12.621c-2.937-1.187-5.2-3.716-6.056-6.766l-1.902-6.774-4.161.601c.797-2.107 1.663-4.197 2.572-6.261l-8.51-30.315c-.743-2.649-.411-5.429.937-7.828 1.347-2.398 3.548-4.129 6.196-4.873.912-.256 1.852-.386 2.792-.386 4.592 0 8.666 3.092 9.909 7.52l4.245 15.124 10.572 14.724c1.53 2.132 3.97 3.335 6.499 3.335.797 0 1.604-.12 2.394-.367l39.084-12.258 2.536-.796.063-.02c2.088-.655 3.715-2.089 4.667-3.88.97-1.825 1.239-4.021.572-6.148-.066-.211-.146-.414-.228-.615l19.68-16.224-2.651-3.215-19.552 16.119c-1.652-1.271-3.776-1.877-5.928-1.593-.45.059-.902.15-1.35.29l-36.161 11.343-19.438-27.07c-.213-.297-.448-.567-.692-.826-.945-1.64-2.211-3.04-3.858-4.044-7.511-4.582-20.706-3.853-29.885 8.618-7.65 10.523-12.609 19.134-16.262 29.253-2.325 6.44-4.122 13.489-5.743 22.035-1.823 16.3 8.215 21.173 16.996 23.798z"/><path d="m95.776 245.186c-2.195-5.139-7.6-8.278-13.268-7.458l-3.814.551z"/><path d="m107.762 146.441c.037-3.959-9.56-7.257-21.434-7.367-.406-.004-.803.005-1.203.009-4.026-4.057-9.589-6.592-15.757-6.649-12.425-.115-22.592 9.865-22.707 22.291-.115 12.427 9.865 22.592 22.291 22.707 11.399.106 20.887-8.283 22.469-19.261-2.028-.122-4.166-.36-6.364-.723-11.503-1.898-20.341-6.493-20.051-10.356 1.492 3.474 10.385 6.216 21.189 6.316 8.154.076 15.26-1.372 18.926-3.568 1.673-1.002 2.63-2.159 2.641-3.399z"/><path d="m110.721 273.45-3.651-1.476 2.527 2.73 1.293-1.191.001-.004c-.056-.021-.114-.036-.17-.059z"/><path d="m124.812 265.018 8.606 9.273 1.378-1.277 1.574 1.697.919-.851 1.117 1.205.684-.634 4.822 5.203 1.455-1.347 13.502 14.571 1.095-1.016-13.501-14.571 1.504-1.393-4.822-5.204.685-.634-1.117-1.206.919-.851-18.226-19.66c-1.858-2.006-4.992-2.127-6.996-.267-2.579 2.394-1.81 4.728-1.232 5.784l1.265.512c4.365 1.766 6.855 6.201 6.369 10.666zm-2.46-15.624 6.801 7.339-.766.711-6.801-7.339zm-1.973 1.827 6.802 7.34-.767.71-6.8-7.339z"/><path d="m111.583 271.318c.982.397 1.998.585 2.996.585 3.164 0 6.16-1.89 7.42-5.003 1.656-4.096-.322-8.759-4.418-10.416l-42.108-17.027-10.938-38.968c-1.193-4.253-5.606-6.737-9.864-5.54-4.254 1.194-6.734 5.61-5.54 9.864l12 42.75c.669 2.385 2.406 4.326 4.703 5.255z"/><path d="m125.346 314.647h264.667v6h-264.667z"/></g></svg>