<svg id="Layer_3" height="512" viewBox="0 0 64 64" width="512" xmlns="http://www.w3.org/2000/svg" data-name="Layer 3"><path d="m62.707 41.286-7.071-7.071a1.029 1.029 0 0 0 -1.414 0l-.707.707-1.247-1.247-1.34-4.019a1.011 1.011 0 0 0 -.241-.391l-3.687-3.686v-21.579a3 3 0 0 0 -3-3h-40a3 3 0 0 0 -3 3v56a3 3 0 0 0 3 3h40a3 3 0 0 0 3-3v-6.137l1.565 1.565a1 1 0 0 0 1.414 0l12.728-12.728a1 1 0 0 0 0-1.414zm-13.6-10.774 1.34 4.019a.99.99 0 0 0 .242.391l1.411 1.414-8.485 8.486-1.415-1.415a1 1 0 0 0 -.707-.293h-5.242l-3.951-3.949 1.414-1.415 2.121 2.122 1.414-1.414-12.019-12.021 1.415-1.415 10.606 10.607 1.414-1.414-3.535-3.536 1.414-1.414 3.536 3.535 1.414-1.414-3.536-3.536 1.415-1.414 3.535 3.535 1.414-1.414-3.535-3.536 1.413-1.413zm-4.107 29.488a1 1 0 0 1 -1 1h-40a1 1 0 0 1 -1-1v-56a1 1 0 0 1 1-1h40a1 1 0 0 1 1 1v19.579l-2.092-2.092a1.029 1.029 0 0 0 -1.414 0l-2.828 2.828-2.829 2.829-2.121 2.121-6.364-6.365a1 1 0 0 0 -1.414 0l-2.829 2.828a1 1 0 0 0 0 1.415l9.191 9.193-2.121 2.122a1 1 0 0 0 0 1.414l4.949 4.949a1 1 0 0 0 .707.293h5.245l1.12 1.122-.707.707c-.017.017-.022.039-.038.057h-4.455v2h5.137l2.863 2.863zm4.272-6.693-5.657-5.657 11.314-11.314 5.657 5.657z"/><path d="m20 5h-14a1 1 0 0 0 -1 1v14a1 1 0 0 0 1 1h14a1 1 0 0 0 1-1v-14a1 1 0 0 0 -1-1zm-1 14h-12v-12h12z"/><path d="m20 24h-14a1 1 0 0 0 -1 1v14a1 1 0 0 0 1 1h14a1 1 0 0 0 1-1v-14a1 1 0 0 0 -1-1zm-1 14h-12v-12h12z"/><path d="m20 43h-14a1 1 0 0 0 -1 1v14a1 1 0 0 0 1 1h14a1 1 0 0 0 1-1v-14a1 1 0 0 0 -1-1zm-1 14h-12v-12h12z"/><path d="m23 7h12v2h-12z"/><path d="m37 7h6v2h-6z"/><path d="m23 11h12v2h-12z"/><path d="m37 11h6v2h-6z"/><path d="m23 15h12v2h-12z"/><path d="m37 15h6v2h-6z"/><path d="m23 47h12v2h-12z"/><path d="m23 51h12v2h-12z"/><path d="m37 51h6v2h-6z"/><path d="m23 55h12v2h-12z"/><path d="m37 55h6v2h-6z"/><path d="m11 36a1 1 0 0 0 .707-.293l6-6-1.414-1.414-5.293 5.293-1.293-1.293-1.414 1.414 2 2a1 1 0 0 0 .707.293z"/><path d="m11 17a1 1 0 0 0 .707-.293l6-6-1.414-1.414-5.293 5.293-1.293-1.293-1.414 1.414 2 2a1 1 0 0 0 .707.293z"/></svg>