<svg height="511pt" viewBox="-42 1 511 511.999" width="511pt" xmlns="http://www.w3.org/2000/svg"><path d="m157.171875 92.953125c16.671875 0 31.453125 10.605469 36.777344 26.390625 1.324219 3.925781 5.578125 6.035156 9.503906 4.710938 3.925781-1.324219 6.03125-5.578126 4.707031-9.503907-7.382812-21.890625-27.871094-36.597656-50.988281-36.597656-29.664063 0-53.796875 24.136719-53.796875 53.800781 0 29.664063 24.132812 53.796875 53.796875 53.796875 23.117187 0 43.605469-14.707031 50.988281-36.597656 1.324219-3.921875-.78125-8.179687-4.707031-9.5-3.925781-1.324219-8.179687.785156-9.503906 4.707031-5.324219 15.785156-20.105469 26.390625-36.777344 26.390625-21.390625 0-38.796875-17.402343-38.796875-38.796875 0-21.394531 17.40625-38.800781 38.796875-38.800781zm0 0"/><path d="m275.253906 131.753906c0-38.476562-18.496094-72.714844-47.066406-94.285156-.21875-.207031-.449219-.398438-.691406-.582031-41.550782-30.847657-98.773438-31.085938-140.644532 0-.246093.183593-.476562.375-.691406.582031-28.570312 21.574219-47.066406 55.808594-47.066406 94.285156v19.261719h-12.222656c-8.4375 0-15.296875 6.863281-15.296875 15.296875v45.898438c0 8.433593 6.859375 15.296874 15.296875 15.296874h12.222656v194.179688c0 4.140625 3.355469 7.5 7.5 7.5 4.140625 0 7.5-3.359375 7.5-7.5v-131.640625h16.820312v182.371094c0 6.015625-4.898437 10.910156-10.910156 10.910156h-5.910156v-31.640625c0-4.140625-3.359375-7.5-7.5-7.5-4.144531 0-7.5 3.359375-7.5 7.5v31.640625h-31.09375c-4.144531 0-7.5 3.359375-7.5 7.5s3.355469 7.5 7.5 7.5h54.503906c.996094 0 1.949219-.195313 2.824219-.550781 11.742187-2.460938 20.585937-12.894532 20.585937-25.359375v-182.371094h5.011719c2.796875 0 5.363281-1.554687 6.652344-4.035156 11.625-22.316407 34.460937-36.175781 59.59375-36.175781 65.113281 0 118.082031-52.972657 118.082031-118.082032zm-176.433594-84.933594c35.105469-24.195312 81.59375-24.199218 116.707032 0v12.898438c0 3.621094-2.496094 5.289062-3.570313 5.839844-1.070312.546875-3.871093 1.59375-6.792969-.511719-14.039062-10.117187-30.632812-15.460937-47.988281-15.460937s-33.953125 5.34375-47.992187 15.460937c-2.917969 2.101563-5.722656 1.058594-6.789063.511719-1.074219-.550782-3.570312-2.21875-3.570312-5.839844v-12.898438zm-71.949218 165.6875c-.164063 0-.296875-.132812-.296875-.296874v-45.898438c0-.164062.132812-.296875.296875-.296875h12.222656v46.492187zm130.300781 22.328126c-29.203125 0-55.867187 15.292968-70.648437 40.210937h-32.429688v-143.292969c0-28.167968 11.355469-53.730468 29.726562-72.355468v.320312c0 8.132812 4.5 15.484375 11.734376 19.191406 3.117187 1.59375 6.480468 2.382813 9.828124 2.382813 4.425782 0 8.820313-1.375 12.570313-4.074219 11.46875-8.265625 25.03125-12.632812 39.21875-12.632812 14.191406 0 27.753906 4.367187 39.222656 12.632812 6.585938 4.742188 15.164063 5.394531 22.394531 1.691406 7.238282-3.707031 11.738282-11.058594 11.738282-19.191406v-.320312c18.371094 18.625 29.726562 44.1875 29.726562 72.355468 0 56.839844-46.242187 103.082032-103.082031 103.082032zm0 0"/><path d="m426.945312 72.636719c0-.070313 0-.140625-.003906-.207031v-33.222657c.003906-.070312.003906-.136719.003906-.207031s0-.136719-.003906-.207031v-31.292969c0-4.140625-3.355468-7.5-7.5-7.5h-88.429687c-4.140625 0-7.5 3.359375-7.5 7.5v105.410156c0 4.140625 3.359375 7.5 7.5 7.5 4.144531 0 7.5-3.359375 7.5-7.5v-97.910156h73.429687v16.5h-16.625c-4.144531 0-7.5 3.359375-7.5 7.5s3.355469 7.5 7.5 7.5h16.625v18.636719h-16.625c-4.144531 0-7.5 3.355469-7.5 7.5 0 4.140625 3.355469 7.5 7.5 7.5h16.625v18.636719h-36.714844c-4.140624 0-7.5 3.359374-7.5 7.5 0 4.140624 3.359376 7.5 7.5 7.5h36.714844v18.636718h-16.625c-4.144531 0-7.5 3.355469-7.5 7.5 0 4.140625 3.355469 7.5 7.5 7.5h16.625v18.636719h-16.625c-4.144531 0-7.5 3.355469-7.5 7.5 0 4.140625 3.355469 7.5 7.5 7.5h16.625v18.632813h-36.714844c-4.140624 0-7.5 3.359374-7.5 7.5 0 4.144531 3.359376 7.5 7.5 7.5h36.714844v18.636718h-16.625c-4.144531 0-7.5 3.359375-7.5 7.5 0 4.144532 3.355469 7.5 7.5 7.5h16.625v18.636719h-16.625c-4.144531 0-7.5 3.359375-7.5 7.5 0 4.144531 3.355469 7.5 7.5 7.5h16.625v18.636719h-36.714844c-4.140624 0-7.5 3.359375-7.5 7.5s3.359376 7.5 7.5 7.5h36.714844v18.636718h-16.625c-4.144531 0-7.5 3.359376-7.5 7.5 0 4.140626 3.355469 7.5 7.5 7.5h16.625v18.636719h-16.625c-4.144531 0-7.5 3.359375-7.5 7.5s3.355469 7.5 7.5 7.5h16.625v67.769531l-18.875-38.132812c-4.285156-8.648438-12.941406-14.023438-22.59375-14.023438h-31.960937v-255.566406c0-4.140625-3.355469-7.5-7.5-7.5-4.140625 0-7.5 3.359375-7.5 7.5v255.566406h-137.261719c-11.488281 0-20.835938 9.347657-20.835938 20.835938v71.851562c0 11.488282 9.347657 20.835938 20.835938 20.835938h215.464844c8.777344 0 16.785156-4.453125 21.417968-11.914062 1.78125-2.875 2.945313-6 3.476563-9.207032.214844-.703125.332031-1.449218.332031-2.222656v-1.601562c.003906-.167969.003906-.335938 0-.503907v-110.980469c.003906-.070312.003906-.136718.003906-.207031 0-.066406 0-.136719-.003906-.207031v-33.222656c.003906-.070313.003906-.136719.003906-.207032 0-.066406 0-.136718-.003906-.203124v-33.222657c.003906-.070312.003906-.140625.003906-.207031 0-.070312 0-.140625-.003906-.207031v-33.222657c.003906-.070312.003906-.136718.003906-.207031 0-.066406 0-.136719-.003906-.203125v-33.226562c.003906-.066406.003906-.136719.003906-.203125 0-.070313 0-.140625-.003906-.207031v-33.222657c.003906-.070312.003906-.136719.003906-.207031s0-.136719-.003906-.207031v-33.222657c.003906-.070312.003906-.136718.003906-.207031 0-.066406 0-.136719-.003906-.203125v-33.226562c.003906-.066406.003906-.136719.003906-.203125 0-.070313 0-.140625-.003906-.207031v-33.222657c.003906-.070312.003906-.136719.003906-.207031 0-.066406 0-.136719-.003906-.207031v-33.230469c.003906-.070312.003906-.140625.003906-.207031zm-25.230468 424.363281h-215.464844c-3.21875 0-5.835938-2.617188-5.835938-5.835938v-71.851562c0-3.214844 2.617188-5.835938 5.835938-5.835938h144.570312c.0625.003907.128907.003907.191407.003907.066406 0 .128906 0 .195312-.003907h39.265625c3.910156 0 7.414063 2.175782 9.148438 5.679688l31.242187 63.105469c.664063 1.347656 1.023438 2.757812 1.078125 4.167969v.765624c-.003906.089844-.007812.179688-.015625.269532-.039062.257812-.066406.515625-.082031.78125-.199219 1.359375-.6875 2.6875-1.457031 3.929687-1.902344 3.066407-5.0625 4.824219-8.671875 4.824219zm0 0"/></svg>